# This file is brought to you by Roblox Corporation
# Generated by Roblox Studio

mtllib ring1.mtl

g Union1

v -4.92715 4.92982 -6.79802 
v -5.02423 4.92982 -6.77217 
v -4.67458 4.92982 -5.92804 
v -5.043 4.92982 -7.678 
v -5.043 4.92982 -7.678 
v -4.92715 4.92982 -6.79802 
v -4.92715 2.92982 -6.79802 
v -5.14349 4.92982 -7.67804 
v -5.02423 4.92982 -8.58391 
v -4.58749 4.92982 -5.978 
v -4.11837 4.92982 -5.20317 
v -4.58749 4.92982 -5.978 
v -4.67458 4.92982 -5.92804 
v -5.02423 4.92982 -6.77217 
v -5.02423 2.92982 -6.77217 
v -4.04716 4.92982 -5.27384 
v -3.39349 4.92982 -4.64695 
v -4.04716 4.92982 -5.27384 
v -4.58749 2.92982 -5.978 
v -4.11837 4.92982 -5.20317 
v -4.67458 2.92982 -5.92804 
v -3.343 4.92982 -4.73351 
v -2.54936 4.92982 -4.2973 
v -4.04716 4.92982 -5.27384 
v -3.343 4.92982 -4.73351 
v -4.04716 2.92982 -5.27384 
v -3.39349 4.92982 -4.64695 
v -4.11837 4.92982 -5.20317 
v -4.11837 2.92982 -5.20317 
v -2.52299 4.92982 -4.39385 
v -1.64349 4.92982 -4.17804 
v -2.52299 4.92982 -4.39385 
v -2.52299 2.92982 -4.39385 
v -2.54936 4.92982 -4.2973 
v -2.54936 2.92982 -4.2973 
v -1.643 4.92982 -4.278 
v -0.737626 4.92982 -4.2973 
v -1.643 4.92982 -4.278 
v -1.643 2.92982 -4.278 
v -1.64349 4.92982 -4.17804 
v -0.763014 4.92982 -4.39385 
v 0.106506 4.92982 -4.64695 
v -0.763014 4.92982 -4.39385 
v -0.737626 4.92982 -4.2973 
v -0.737626 2.92982 -4.2973 
v 0.0570009 4.92982 -4.73352 
v 0.83138 4.92982 -5.20317 
v 0.0570009 4.92982 -4.73352 
v 0.0570009 2.92982 -4.73352 
v 0.106506 4.92982 -4.64695 
v 0.106506 2.92982 -4.64695 
v 0.761163 4.92982 -5.27384 
v 1.3876 4.92982 -5.92804 
v 0.761163 4.92982 -5.27384 
v 0.761163 2.92982 -5.27384 
v 0.83138 4.92982 -5.20317 
v 1.30149 4.92982 -5.978 
v 1.73725 4.92982 -6.77217 
v 0.761163 4.92982 -5.27384 
v 1.30149 4.92982 -5.978 
v 0.761163 2.92982 -5.27384 
v 1.3876 4.92982 -5.92804 
v 0.83138 4.92982 -5.20317 
v 0.83138 2.92982 -5.20317 
v 1.64115 4.92982 -6.79802 
v 1.85651 4.92982 -7.67804 
v 1.64115 4.92982 -6.79802 
v 1.30149 2.92982 -5.978 
v 1.73725 4.92982 -6.77217 
v 1.73725 2.92982 -6.77217 
v 1.757 4.92982 -7.678 
v 1.64115 4.92982 -8.55799 
v 1.757 4.92982 -7.678 
v 1.757 2.92982 -7.678 
v 1.85651 4.92982 -7.67804 
v 1.73725 4.92982 -8.58391 
v 1.30149 4.92982 -9.378 
v 1.64115 4.92982 -8.55799 
v 1.64115 2.92982 -8.55799 
v 1.73725 4.92982 -8.58391 
v 1.73725 2.92982 -8.58391 
v 1.38759 4.92982 -9.42804 
v 0.761165 4.92982 -10.0822 
v 1.30149 4.92982 -9.378 
v 1.38759 4.92982 -9.42804 
v 0.83138 4.92982 -10.1529 
v 0.0570009 4.92982 -10.6225 
v 0.761165 4.92982 -10.0822 
v 1.30149 2.92982 -9.378 
v 0.83138 4.92982 -10.1529 
v 0.83138 2.92982 -10.1529 
v 0.106508 4.92982 -10.7091 
v -0.763017 4.92982 -10.9621 
v 0.761165 4.92982 -10.0822 
v 0.0570009 4.92982 -10.6225 
v 0.0570009 2.92982 -10.6225 
v 0.106508 4.92982 -10.7091 
v 0.83138 4.92982 -10.1529 
v 0.83138 2.92982 -10.1529 
v -0.737629 4.92982 -11.0588 
v -1.643 4.92982 -11.078 
v -0.763017 4.92982 -10.9621 
v -0.737629 4.92982 -11.0588 
v -0.737629 2.92982 -11.0588 
v -1.64349 4.92982 -11.178 
v -2.52299 4.92982 -10.9621 
v -1.643 4.92982 -11.078 
v -1.643 2.92982 -11.078 
v -1.64349 4.92982 -11.178 
v -1.64349 2.92982 -11.178 
v -2.54936 4.92982 -11.0588 
v -3.343 4.92982 -10.6225 
v -2.52299 4.92982 -10.9621 
v -2.54936 4.92982 -11.0588 
v -3.3935 4.92982 -10.7091 
v -4.04716 4.92982 -10.0822 
v -3.343 4.92982 -10.6225 
v -2.52299 2.92982 -10.9621 
v -3.3935 4.92982 -10.7091 
v -3.3935 2.92982 -10.7091 
v -4.11837 4.92982 -10.1529 
v -4.58749 4.92982 -9.378 
v -4.04716 4.92982 -10.0822 
v -4.04716 2.92982 -10.0822 
v -4.11837 4.92982 -10.1529 
v -4.67458 4.92982 -9.42804 
v -4.92715 4.92982 -8.55799 
v -4.04716 4.92982 -10.0822 
v -4.58749 4.92982 -9.378 
v -4.04716 2.92982 -10.0822 
v -4.67458 4.92982 -9.42804 
v -4.11837 4.92982 -10.1529 
v -4.11837 2.92982 -10.1529 
v -4.92715 4.92982 -8.55799 
v -4.92715 2.92982 -8.55799 
v -5.02423 4.92982 -8.58391 
v -5.02423 2.92982 -8.58391 
v -5.043 2.92982 -7.678 
v -5.14349 4.92982 -7.67804 
v -5.043 2.92982 -7.678 
v -4.92715 2.92982 -6.79802 
v -5.02423 2.92982 -6.77217 
v -5.14349 2.92982 -7.67804 
v -5.14349 2.92982 -7.67804 
v -4.58749 2.92982 -5.978 
v -4.67458 2.92982 -5.92804 
v -4.04716 2.92982 -5.27384 
v -4.04716 2.92982 -5.27384 
v -4.11837 2.92982 -5.20317 
v -4.11837 2.92982 -5.20317 
v -3.343 2.92982 -4.73351 
v -3.343 2.92982 -4.73351 
v -3.39349 2.92982 -4.64695 
v -3.39349 2.92982 -4.64695 
v -2.52299 2.92982 -4.39385 
v -2.54936 2.92982 -4.2973 
v -1.643 2.92982 -4.278 
v -1.64349 2.92982 -4.17804 
v -1.64349 2.92982 -4.17804 
v -0.763014 2.92982 -4.39385 
v -0.763014 2.92982 -4.39385 
v -0.737626 2.92982 -4.2973 
v 0.0570009 2.92982 -4.73352 
v 0.106506 2.92982 -4.64695 
v 0.761163 2.92982 -5.27384 
v 0.83138 2.92982 -5.20317 
v 0.83138 2.92982 -5.20317 
v 1.30149 2.92982 -5.978 
v 1.3876 2.92982 -5.92804 
v 1.3876 2.92982 -5.92804 
v 1.64115 2.92982 -6.79802 
v 1.64115 2.92982 -6.79802 
v 1.73725 2.92982 -6.77217 
v 1.757 2.92982 -7.678 
v 1.85651 2.92982 -7.67804 
v 1.85651 2.92982 -7.67804 
v 1.64115 2.92982 -8.55799 
v 1.73725 2.92982 -8.58391 
v 1.30149 2.92982 -9.378 
v 1.38759 2.92982 -9.42804 
v 1.38759 2.92982 -9.42804 
v 0.761165 2.92982 -10.0822 
v 0.761165 2.92982 -10.0822 
v 0.83138 2.92982 -10.1529 
v 0.761165 2.92982 -10.0822 
v 0.0570009 2.92982 -10.6225 
v 0.106508 2.92982 -10.7091 
v 0.106508 2.92982 -10.7091 
v -0.763017 2.92982 -10.9621 
v -0.763017 2.92982 -10.9621 
v -0.737629 2.92982 -11.0588 
v -1.643 2.92982 -11.078 
v -1.64349 2.92982 -11.178 
v -2.52299 2.92982 -10.9621 
v -2.54936 2.92982 -11.0588 
v -2.54936 2.92982 -11.0588 
v -3.343 2.92982 -10.6225 
v -3.343 2.92982 -10.6225 
v -3.3935 2.92982 -10.7091 
v -4.04716 2.92982 -10.0822 
v -4.11837 2.92982 -10.1529 
v -4.11837 2.92982 -10.1529 
v -4.58749 2.92982 -9.378 
v -4.58749 2.92982 -9.378 
v -4.67458 2.92982 -9.42804 
v -4.67458 2.92982 -9.42804 
v -4.92715 2.92982 -8.55799 
v -5.02423 2.92982 -8.58391 

vn 0 1 0 
vn 0 1 0 
vn 0 1 0 
vn 0 1 0 
vn 1 0 0 
vn 0.968504 0 -0.259843 
vn 0.968504 0 -0.259843 
vn 0 1 0 
vn 0 1 0 
vn 0 1 0 
vn 0 1 0 
vn 0.866142 0 -0.503937 
vn -0.866142 0 0.503937 
vn -0.968504 0 0.259843 
vn -0.968504 0 0.259843 
vn 0 1 0 
vn 0 1 0 
vn 0.708661 0 -0.708661 
vn 0.866142 0 -0.503937 
vn -0.708661 0 0.708661 
vn -0.866142 0 0.503937 
vn 0 1 0 
vn 0 1 0 
vn 0.708661 0 -0.708661 
vn 0.503937 0 -0.866142 
vn 0.708661 0 -0.708661 
vn -0.503937 0 0.866142 
vn -0.708661 0 0.708661 
vn -0.708661 0 0.708661 
vn 0 1 0 
vn 0 1 0 
vn 0.259843 0 -0.968504 
vn 0.259843 0 -0.968504 
vn -0.259843 0 0.968504 
vn -0.259843 0 0.968504 
vn 0 1 0 
vn 0 1 0 
vn 0 0 -1 
vn 0 0 -1 
vn 0 0 1 
vn 0 1 0 
vn 0 1 0 
vn -0.259843 0 -0.968504 
vn 0.259843 0 0.968504 
vn 0.259843 0 0.968504 
vn 0 1 0 
vn 0 1 0 
vn -0.503937 0 -0.866142 
vn -0.503937 0 -0.866142 
vn 0.503937 0 0.866142 
vn 0.503937 0 0.866142 
vn 0 1 0 
vn 0 1 0 
vn -0.708661 0 -0.708661 
vn -0.708661 0 -0.708661 
vn 0.708661 0 0.708661 
vn 0 1 0 
vn 0 1 0 
vn -0.708661 0 -0.708661 
vn -0.866142 0 -0.496063 
vn -0.708661 0 -0.708661 
vn 0.866142 0 0.496063 
vn 0.708661 0 0.708661 
vn 0.708661 0 0.708661 
vn 0 1 0 
vn 0 1 0 
vn -0.968504 0 -0.259843 
vn -0.866142 0 -0.496063 
vn 0.968504 0 0.259843 
vn 0.968504 0 0.259843 
vn 0 1 0 
vn 0 1 0 
vn -1 0 0 
vn -1 0 0 
vn 1 0 0 
vn 0 1 0 
vn 0 1 0 
vn -0.968504 0 0.259843 
vn -0.968504 0 0.259843 
vn 0.968504 0 -0.259843 
vn 0.968504 0 -0.259843 
vn 0 1 0 
vn 0 1 0 
vn -0.866142 0 0.503937 
vn 0.866142 0 -0.503937 
vn 0 1 0 
vn 0 1 0 
vn -0.708661 0 0.708661 
vn -0.866142 0 0.503937 
vn 0.708661 0 -0.708661 
vn 0.708661 0 -0.708661 
vn 0 1 0 
vn 0 1 0 
vn -0.708661 0 0.708661 
vn -0.503937 0 0.866142 
vn -0.503937 0 0.866142 
vn 0.503937 0 -0.866142 
vn 0.708661 0 -0.708661 
vn 0.708661 0 -0.708661 
vn 0 1 0 
vn 0 1 0 
vn -0.259843 0 0.968504 
vn 0.259843 0 -0.968504 
vn 0.259843 0 -0.968504 
vn 0 1 0 
vn 0 1 0 
vn 0 0 1 
vn 0 0 1 
vn 0 0 -1 
vn 0 0 -1 
vn 0 1 0 
vn 0 1 0 
vn 0.259843 0 0.968504 
vn -0.259843 0 -0.968504 
vn 0 1 0 
vn 0 1 0 
vn 0.503937 0 0.866142 
vn 0.259843 0 0.968504 
vn -0.503937 0 -0.866142 
vn -0.503937 0 -0.866142 
vn 0 1 0 
vn 0 1 0 
vn 0.708661 0 0.708661 
vn 0.708661 0 0.708661 
vn -0.708661 0 -0.708661 
vn 0 1 0 
vn 0 1 0 
vn 0.708661 0 0.708661 
vn 0.866142 0 0.496063 
vn 0.708661 0 0.708661 
vn -0.866142 0 -0.496063 
vn -0.708661 0 -0.708661 
vn -0.708661 0 -0.708661 
vn 0.968504 0 0.259843 
vn 0.968504 0 0.259843 
vn -0.968504 0 -0.259843 
vn -0.968504 0 -0.259843 
vn 1 0 0 
vn -1 0 0 
vn 0 -1 0 
vn 0 -1 0 
vn 0 -1 0 
vn -1 0 0 
vn 0 -1 0 
vn 0 -1 0 
vn 0 -1 0 
vn 0.708661 0 -0.708661 
vn 0 -1 0 
vn 0 -1 0 
vn -0.708661 0 0.708661 
vn 0.503937 0 -0.866142 
vn 0 -1 0 
vn 0 -1 0 
vn -0.503937 0 0.866142 
vn 0 -1 0 
vn 0 -1 0 
vn 0 -1 0 
vn 0 -1 0 
vn 0 0 1 
vn -0.259843 0 -0.968504 
vn 0 -1 0 
vn 0 -1 0 
vn 0 -1 0 
vn 0 -1 0 
vn 0 -1 0 
vn 0 -1 0 
vn 0.708661 0 0.708661 
vn 0 -1 0 
vn 0 -1 0 
vn 0.866142 0 0.496063 
vn -0.968504 0 -0.259843 
vn 0 -1 0 
vn 0 -1 0 
vn 0 -1 0 
vn 0 -1 0 
vn 1 0 0 
vn 0 -1 0 
vn 0 -1 0 
vn 0 -1 0 
vn 0.866142 0 -0.503937 
vn 0 -1 0 
vn -0.708661 0 0.708661 
vn 0 -1 0 
vn 0 -1 0 
vn -0.708661 0 0.708661 
vn 0 -1 0 
vn 0.503937 0 -0.866142 
vn 0 -1 0 
vn -0.259843 0 0.968504 
vn 0 -1 0 
vn 0 -1 0 
vn 0 -1 0 
vn 0 -1 0 
vn 0 -1 0 
vn -0.259843 0 -0.968504 
vn 0 -1 0 
vn 0.503937 0 0.866142 
vn 0 -1 0 
vn 0 -1 0 
vn 0 -1 0 
vn -0.708661 0 -0.708661 
vn 0 -1 0 
vn 0.866142 0 0.496063 
vn 0 -1 0 
vn -0.866142 0 -0.496063 
vn 0 -1 0 
vn 0 -1 0 
vn 0 -1 0 

vt 5.39767 0.0616932 
vt 5.36407 0.187906 
vt 4.2667 -0.266641 
vt 6.54165 0.212302 
vt 7.03609 -6.89801 
vt 7.03609 -5.75402 
vt 4.43609 -5.75402 
vt 6.5417 0.342944 
vt 7.71933 0.187906 
vt 4.33165 -0.379867 
vt 3.32437 -0.989721 
vt 7.03609 -4.688 
vt 0.66532 -4.62305 
vt 0.66532 -5.72043 
vt 3.26532 -5.72043 
vt 3.41624 -1.08229 
vt 2.60129 -1.93205 
vt 7.03609 -3.77259 
vt 4.43609 -4.688 
vt 0.66532 -3.68072 
vt 3.26532 -4.62305 
vt 2.71382 -1.9977 
vt 2.14674 -3.02943 
vt 0.66532 -1.08229 
vt 0.66532 -1.9977 
vt 3.26532 -1.08229 
vt 7.03609 -1.93205 
vt 7.03609 -0.989721 
vt 4.43609 -0.989721 
vt 2.27226 -3.06372 
vt 1.9917 -4.20706 
vt 0.66532 -3.06372 
vt 3.26532 -3.06372 
vt 7.03609 -3.02943 
vt 4.43609 -3.02943 
vt 2.12165 -4.2077 
vt 2.14674 -5.38468 
vt 0.66532 -4.2077 
vt 3.26532 -4.2077 
vt 7.03609 -4.20706 
vt 2.27226 -5.35168 
vt 2.60129 -6.48206 
vt 0.66532 -5.35168 
vt 7.03609 -5.38468 
vt 4.43609 -5.38468 
vt 2.71382 -6.4177 
vt 3.32437 -7.42439 
vt 0.66532 -6.4177 
vt 3.26532 -6.4177 
vt 7.03609 -6.48206 
vt 4.43609 -6.48206 
vt 3.41624 -7.33311 
vt 4.2667 -8.14747 
vt 0.66532 -7.33311 
vt 3.26532 -7.33311 
vt 7.03609 -7.42439 
vt 4.33165 -8.03553 
vt 5.36408 -8.60202 
vt 0.66532 -3.77259 
vt 0.66532 -4.688 
vt 3.26532 -3.77259 
vt 7.03609 -4.62305 
vt 7.03609 -3.68072 
vt 4.43609 -3.68072 
vt 5.39767 -8.47709 
vt 6.5417 -8.75706 
vt 0.66532 -5.75402 
vt 3.26532 -4.688 
vt 7.03609 -5.72043 
vt 4.43609 -5.72043 
vt 6.54165 -8.6277 
vt 7.68563 -8.47709 
vt 0.66532 -6.898 
vt 3.26532 -6.898 
vt 7.03609 -6.89805 
vt 7.71933 -8.60202 
vt 8.75165 -8.03553 
vt 0.66532 -8.04199 
vt 3.26532 -8.04199 
vt 7.03609 -8.07568 
vt 4.43609 -8.07568 
vt 8.8167 -8.14747 
vt 9.66706 -7.33311 
vt 0.66532 -9.10801 
vt 7.03609 -9.17305 
vt 9.75904 -7.42439 
vt 10.3695 -6.4177 
vt 0.66532 -10.0234 
vt 3.26532 -9.10801 
vt 7.03609 -10.1154 
vt 4.43609 -10.1154 
vt 10.4821 -6.48206 
vt 10.811 -5.35168 
vt 7.03609 -7.33311 
vt 7.03609 -6.4177 
vt 4.43609 -6.4177 
vt 0.66532 -6.48206 
vt 0.66532 -7.42439 
vt 3.26532 -7.42439 
vt 10.9367 -5.38468 
vt 10.9617 -4.2077 
vt 7.03609 -5.35168 
vt 0.66532 -5.38468 
vt 3.26532 -5.38468 
vt 11.0917 -4.20706 
vt 10.811 -3.06371 
vt 7.03609 -4.2077 
vt 4.43609 -4.2077 
vt 0.66532 -4.20706 
vt 3.26532 -4.20706 
vt 10.9367 -3.02943 
vt 10.3695 -1.9977 
vt 7.03609 -3.06371 
vt 0.66532 -3.02943 
vt 10.4821 -1.93205 
vt 9.66706 -1.08229 
vt 7.03609 -1.9977 
vt 4.43609 -3.06371 
vt 0.665319 -1.93205 
vt 3.26532 -1.93205 
vt 9.75904 -0.989719 
vt 8.75165 -0.379864 
vt 7.03609 -1.08229 
vt 4.43609 -1.08229 
vt 0.66532 -0.989719 
vt 8.8167 -0.26664 
vt 7.68563 0.0616937 
vt 7.03609 -10.0234 
vt 7.03609 -9.108 
vt 4.43609 -10.0234 
vt 0.66532 -9.17305 
vt 0.66532 -10.1154 
vt 3.26532 -10.1154 
vt 7.03609 -8.04199 
vt 4.43609 -8.04199 
vt 0.66532 -8.07568 
vt 3.26532 -8.07568 
vt 4.43609 -6.89801 
vt 0.66532 -6.89806 
vt 1.15975 0.212302 
vt 2.30374 0.0616932 
vt 2.33733 0.187906 
vt 3.26532 -6.89806 
vt 1.1597 0.342944 
vt 3.36976 -0.379867 
vt 3.43471 -0.266641 
vt 4.43609 -3.77259 
vt 4.28517 -1.08229 
vt 4.37704 -0.989721 
vt 3.26532 -3.68072 
vt 3.26532 -1.9977 
vt 4.98759 -1.9977 
vt 5.10012 -1.93205 
vt 4.43609 -1.93205 
vt 5.42915 -3.06372 
vt 5.55467 -3.02943 
vt 5.57975 -4.2077 
vt 5.70971 -4.20706 
vt 4.43609 -4.20706 
vt 3.26532 -5.35168 
vt 5.42915 -5.35168 
vt 5.55467 -5.38468 
vt 4.98759 -6.4177 
vt 5.10012 -6.48206 
vt 4.28517 -7.33311 
vt 4.37704 -7.42439 
vt 4.43609 -7.42439 
vt 3.36976 -8.03553 
vt 3.43471 -8.14747 
vt 4.43609 -4.62305 
vt 3.26532 -5.75402 
vt 2.30374 -8.47709 
vt 2.33733 -8.60202 
vt 1.15976 -8.6277 
vt 1.15971 -8.75706 
vt 4.43609 -6.89805 
vt 0.015774 -8.47709 
vt -0.0179207 -8.60202 
vt -1.05025 -8.03553 
vt 4.43609 -9.17305 
vt -1.11529 -8.14747 
vt 3.26532 -10.0234 
vt -1.96565 -7.33311 
vt -2.05763 -7.42439 
vt 4.43609 -7.33311 
vt -2.66807 -6.4177 
vt 3.26532 -6.48206 
vt -2.78071 -6.48206 
vt 4.43609 -5.35168 
vt -3.10964 -5.35168 
vt -3.23526 -5.38468 
vt -3.26024 -4.2077 
vt -3.39029 -4.20706 
vt -3.10963 -3.06371 
vt 3.26532 -3.02943 
vt -3.23526 -3.02943 
vt 4.43609 -1.9977 
vt -2.66808 -1.9977 
vt -2.78071 -1.93205 
vt -1.96565 -1.08229 
vt 3.26532 -0.989719 
vt -2.05763 -0.989719 
vt 4.43609 -9.108 
vt -1.05024 -0.379864 
vt 3.26532 -9.17305 
vt -1.11529 -0.26664 
vt 0.015774 0.0616937 
vt -0.0179219 0.187906 

usemtl Union1Mtl

f 1/1/1 2/2/2 3/3/3 
f 2/2/2 1/1/1 4/4/4 
f 5/5/5 6/6/6 7/7/7 
f 8/8/8 4/4/4 9/9/9 
f 4/4/4 8/8/8 2/2/2 
f 10/10/10 3/3/3 11/11/11 
f 3/3/3 10/10/10 1/1/1 
f 6/6/6 12/12/12 7/7/7 
f 13/13/13 14/14/14 15/15/15 
f 16/16/16 11/11/11 17/17/17 
f 11/11/11 16/16/16 10/10/10 
f 12/12/12 18/18/18 19/19/19 
f 20/20/20 13/13/13 21/21/21 
f 22/22/22 17/17/17 23/23/23 
f 17/17/17 22/22/22 16/16/16 
f 24/24/24 25/25/25 26/26/26 
f 27/27/27 28/28/28 29/29/29 
f 30/30/30 23/23/23 31/31/31 
f 23/23/23 30/30/30 22/22/22 
f 25/25/25 32/32/32 33/33/33 
f 34/34/34 27/27/27 35/35/35 
f 36/36/36 31/31/31 37/37/37 
f 31/31/31 36/36/36 30/30/30 
f 32/32/32 38/38/38 39/39/39 
f 40/40/40 34/34/34 35/35/35 
f 41/41/41 37/37/37 42/42/42 
f 37/37/37 41/41/41 36/36/36 
f 38/38/38 43/43/43 39/39/39 
f 44/44/44 40/40/40 45/45/45 
f 46/46/46 42/42/42 47/47/47 
f 42/42/42 46/46/46 41/41/41 
f 43/43/43 48/48/48 49/49/49 
f 50/50/50 44/44/44 51/51/51 
f 52/52/52 47/47/47 53/53/53 
f 47/47/47 52/52/52 46/46/46 
f 48/48/48 54/54/54 55/55/55 
f 56/56/56 50/50/50 51/51/51 
f 57/57/57 53/53/53 58/58/58 
f 53/53/53 57/57/57 52/52/52 
f 59/59/59 60/60/60 61/61/61 
f 62/62/62 63/63/63 64/64/64 
f 65/65/65 58/58/58 66/66/66 
f 58/58/58 65/65/65 57/57/57 
f 60/60/60 67/67/67 68/68/68 
f 69/69/69 62/62/62 70/70/70 
f 71/71/71 66/66/66 72/72/72 
f 66/66/66 71/71/71 65/65/65 
f 67/67/67 73/73/73 74/74/74 
f 75/75/75 69/69/69 70/70/70 
f 72/72/72 76/76/76 77/77/77 
f 76/76/76 72/72/72 66/66/66 
f 73/73/73 78/78/78 79/79/79 
f 80/80/80 75/75/75 81/81/81 
f 77/77/77 82/82/82 83/83/83 
f 82/82/82 77/77/77 76/76/76 
f 78/78/78 84/84/84 79/79/79 
f 85/85/85 80/80/80 81/81/81 
f 83/83/83 86/86/86 87/87/87 
f 86/86/86 83/83/83 82/82/82 
f 84/84/84 88/88/88 89/89/89 
f 90/90/90 85/85/85 91/91/91 
f 87/87/87 92/92/92 93/93/93 
f 92/92/92 87/87/87 86/86/86 
f 94/94/94 95/95/95 96/96/96 
f 97/97/97 98/98/98 99/99/99 
f 93/93/93 100/100/100 101/101/101 
f 100/100/100 93/93/93 92/92/92 
f 95/95/95 102/102/102 96/96/96 
f 103/103/103 97/97/97 104/104/104 
f 101/101/101 105/105/105 106/106/106 
f 105/105/105 101/101/101 100/100/100 
f 102/102/102 107/107/107 108/108/108 
f 109/109/109 103/103/103 110/110/110 
f 106/106/106 111/111/111 112/112/112 
f 111/111/111 106/106/106 105/105/105 
f 107/107/107 113/113/113 108/108/108 
f 114/114/114 109/109/109 110/110/110 
f 112/112/112 115/115/115 116/116/116 
f 115/115/115 112/112/112 111/111/111 
f 113/113/113 117/117/117 118/118/118 
f 119/119/119 114/114/114 120/120/120 
f 116/116/116 121/121/121 122/122/122 
f 121/121/121 116/116/116 115/115/115 
f 117/117/117 123/123/123 124/124/124 
f 125/125/125 119/119/119 120/120/120 
f 122/122/122 126/126/126 127/127/127 
f 126/126/126 122/122/122 121/121/121 
f 128/128/128 129/129/129 130/130/130 
f 131/131/131 132/132/132 133/133/133 
f 127/127/127 9/9/9 4/4/4 
f 9/9/9 127/127/127 126/126/126 
f 129/129/129 134/134/134 135/135/135 
f 136/136/136 131/131/131 137/137/137 
f 134/134/134 5/5/5 138/138/138 
f 139/139/139 136/136/136 137/137/137 
f 7/7/7 138/138/138 5/5/5 
f 140/140/140 141/141/141 142/142/142 
f 143/143/143 15/15/15 139/139/139 
f 142/142/142 144/144/144 140/140/140 
f 19/19/19 7/7/7 12/12/12 
f 141/141/141 145/145/145 146/146/146 
f 15/15/15 21/21/21 13/13/13 
f 146/146/146 142/142/142 141/141/141 
f 147/147/147 19/19/19 18/18/18 
f 145/145/145 148/148/148 149/149/149 
f 21/21/21 150/150/150 20/20/20 
f 149/149/149 146/146/146 145/145/145 
f 151/151/151 26/26/26 25/25/25 
f 148/148/148 152/152/152 153/153/153 
f 29/29/29 154/154/154 27/27/27 
f 153/153/153 149/149/149 148/148/148 
f 33/33/33 151/151/151 25/25/25 
f 152/152/152 155/155/155 156/156/156 
f 154/154/154 35/35/35 27/27/27 
f 156/156/156 153/153/153 152/152/152 
f 39/39/39 33/33/33 32/32/32 
f 155/155/155 157/157/157 158/158/158 
f 35/35/35 159/159/159 40/40/40 
f 158/158/158 156/156/156 155/155/155 
f 160/160/160 39/39/39 43/43/43 
f 157/157/157 161/161/161 162/162/162 
f 159/159/159 45/45/45 40/40/40 
f 162/162/162 158/158/158 157/157/157 
f 49/49/49 160/160/160 43/43/43 
f 161/161/161 163/163/163 164/164/164 
f 45/45/45 51/51/51 44/44/44 
f 164/164/164 162/162/162 161/161/161 
f 55/55/55 49/49/49 48/48/48 
f 163/163/163 165/165/165 166/166/166 
f 51/51/51 167/167/167 56/56/56 
f 166/166/166 164/164/164 163/163/163 
f 68/68/68 61/61/61 60/60/60 
f 165/165/165 168/168/168 169/169/169 
f 64/64/64 170/170/170 62/62/62 
f 169/169/169 166/166/166 165/165/165 
f 171/171/171 68/68/68 67/67/67 
f 168/168/168 172/172/172 173/173/173 
f 170/170/170 70/70/70 62/62/62 
f 173/173/173 169/169/169 168/168/168 
f 74/74/74 171/171/171 67/67/67 
f 172/172/172 174/174/174 175/175/175 
f 70/70/70 176/176/176 75/75/75 
f 175/175/175 173/173/173 172/172/172 
f 79/79/79 74/74/74 73/73/73 
f 174/174/174 177/177/177 175/175/175 
f 176/176/176 81/81/81 75/75/75 
f 178/178/178 175/175/175 177/177/177 
f 89/89/89 79/79/79 84/84/84 
f 177/177/177 179/179/179 178/178/178 
f 81/81/81 180/180/180 85/85/85 
f 181/181/181 178/178/178 179/179/179 
f 182/182/182 89/89/89 88/88/88 
f 179/179/179 183/183/183 181/181/181 
f 180/180/180 91/91/91 85/85/85 
f 184/184/184 181/181/181 183/183/183 
f 96/96/96 185/185/185 94/94/94 
f 183/183/183 186/186/186 184/184/184 
f 99/99/99 187/187/187 97/97/97 
f 188/188/188 184/184/184 186/186/186 
f 189/189/189 96/96/96 102/102/102 
f 186/186/186 190/190/190 188/188/188 
f 187/187/187 104/104/104 97/97/97 
f 191/191/191 188/188/188 190/190/190 
f 108/108/108 189/189/189 102/102/102 
f 190/190/190 192/192/192 191/191/191 
f 104/104/104 110/110/110 103/103/103 
f 193/193/193 191/191/191 192/192/192 
f 118/118/118 108/108/108 113/113/113 
f 192/192/192 194/194/194 193/193/193 
f 110/110/110 195/195/195 114/114/114 
f 196/196/196 193/193/193 194/194/194 
f 197/197/197 118/118/118 117/117/117 
f 194/194/194 198/198/198 196/196/196 
f 195/195/195 120/120/120 114/114/114 
f 199/199/199 196/196/196 198/198/198 
f 124/124/124 197/197/197 117/117/117 
f 198/198/198 200/200/200 199/199/199 
f 120/120/120 201/201/201 125/125/125 
f 202/202/202 199/199/199 200/200/200 
f 203/203/203 130/130/130 129/129/129 
f 200/200/200 204/204/204 202/202/202 
f 133/133/133 205/205/205 131/131/131 
f 206/206/206 202/202/202 204/204/204 
f 135/135/135 203/203/203 129/129/129 
f 204/204/204 207/207/207 206/206/206 
f 208/208/208 140/140/140 144/144/144 
f 140/140/140 208/208/208 207/207/207 
f 137/137/137 143/143/143 139/139/139 
f 205/205/205 137/137/137 131/131/131 
f 208/208/208 206/206/206 207/207/207 
f 138/138/138 135/135/135 134/134/134 
f 15/15/15 14/14/14 139/139/139 

